<?xml version="1.0" encoding="UTF-8"?>
<svg version="1.1" xmlns="http://www.w3.org/2000/svg" width="256" height="256">
<path d="M0 0 C0.99 0.99 0.99 0.99 2 2 C1.625 5.625 1.625 5.625 1 9 C-2.3 10.32 -5.6 11.64 -9 13 C-9 16.30355546 -7.32396334 19.02108249 -6 22 C-4.82244141 21.94779297 -4.82244141 21.94779297 -3.62109375 21.89453125 C5.49209734 21.65971283 11.07451695 22.66812978 18 29 C20.31282587 32.46923881 20.42478586 33.92205575 20 38 C18.8125 39.9375 18.8125 39.9375 17 41 C14.5625 41 14.5625 41 12 40 C9.8125 37.5 9.8125 37.5 8 35 C5.01002175 33.50501087 2.29957225 33.88422554 -1 34 C-2.485 34.495 -2.485 34.495 -4 35 C-4.91849826 37.23236116 -4.91849826 37.23236116 -5.5 39.875 C-6.36859994 43.42178307 -6.99120432 45.77834647 -10 48 C-13.0625 48 -13.0625 48 -16 47 C-17.5 44.875 -17.5 44.875 -18 42 C-17.690625 40.9275 -17.38125 39.855 -17.0625 38.75 C-15.04280578 31.62166744 -16.60738078 25.93338268 -20.0625 19.53125 C-20.91147729 18.01057657 -20.91147729 18.01057657 -22 17 C-28.73272384 17.59406387 -34.59447603 18.89180178 -40 23 C-40.71835395 24.38020815 -41.40423162 25.77764551 -42.0625 27.1875 C-43.2265625 29.30859375 -43.2265625 29.30859375 -45 31 C-48.59359489 31.6688808 -52.02429177 31.75190452 -55.67578125 31.83203125 C-60.03091901 32.05209109 -62.02071488 32.78550816 -65 36 C-66.12914686 38.54162208 -67.07961472 41.11060434 -68.01171875 43.73046875 C-69.36512986 46.8384998 -70.92662724 47.68284025 -74 49 C-79.17185559 52.1664422 -83.03568055 55.10704166 -85 61 C-85.05865801 62.59269626 -85.06122359 64.18783408 -85.02734375 65.78125 C-85.01509766 66.70550781 -85.00285156 67.62976563 -84.99023438 68.58203125 C-84.95507678 70.52741824 -84.91601381 72.47273857 -84.87304688 74.41796875 C-84.86208984 75.34222656 -84.85113281 76.26648438 -84.83984375 77.21875 C-84.82300537 78.06373047 -84.80616699 78.90871094 -84.78881836 79.77929688 C-85 82 -85 82 -87 85 C-87.50031206 88.41571853 -87.50031206 88.41571853 -87 92 C-86.360625 92.763125 -85.72125 93.52625 -85.0625 94.3125 C-82.77339469 97.29527358 -82.7113492 98.30662915 -82.5 101.9375 C-82.11661134 107.80160387 -79.99685659 110.87833987 -76 115.125 C-67.03201362 120.72999149 -57.08205766 122.1621589 -46.7421875 121.83984375 C-44 122 -44 122 -41 124 C-40.47190843 126.56417797 -40.08073221 129.03635636 -39.75 131.625 C-38.6215831 138.72873576 -36.94264788 143.49835491 -31 148 C-18.2467271 156.57144614 -2.33023006 154.59207705 12 152 C16.02794992 151.17863071 20.044653 150.30675322 24.0625 149.4375 C47.50094509 144.41119688 47.50094509 144.41119688 52.359375 147.5 C53.17148437 148.2425 53.17148437 148.2425 54 149 C53.6875 151.875 53.6875 151.875 53 155 C49.88968305 157.07354463 48.25398311 157.46533201 44.6328125 158.03515625 C43.58222656 158.20466797 42.53164062 158.37417969 41.44921875 158.54882812 C40.35222656 158.71833984 39.25523437 158.88785156 38.125 159.0625 C35.96084509 159.406972 33.79677926 159.75200428 31.6328125 160.09765625 C30.67262207 160.24726807 29.71243164 160.39687988 28.72314453 160.55102539 C26.13482629 160.97777071 23.56884277 161.46947178 21 162 C21.43570313 162.64324219 21.87140625 163.28648437 22.3203125 163.94921875 C32.04930283 178.71117161 36.75051316 194.00205263 41 211 C44.96 210.67 48.92 210.34 53 210 C52.835 209.05125 52.67 208.1025 52.5 207.125 C51.6063882 200.75315937 50.80894548 193.81898177 54 188 C55 187 55 187 57.6953125 186.8125 C61.16219911 187.00920279 63.63451384 187.78797401 66.875 189 C78.39774455 192.68306903 90.04117623 192.45111888 101 187 C106.39648268 184.15458186 108.45005129 181.38322506 111 176 C111.36896292 174.34085707 111.70986713 172.67472738 112 171 C105.81771415 166.0330353 99.3243999 163.45900458 91.85375977 161.09326172 C85.40161074 159.00457825 85.40161074 159.00457825 83 156 C83.24453124 152.65807308 83.60543557 151.39456443 86 149 C96.98334709 148.14671208 107.9548121 154.41389821 117 160 C117.33 160.33 117.66 160.66 118 161 C123.4451126 161.66674848 126.69991633 160.63598637 131.08203125 157.6015625 C137.70841416 152.06833034 140.53225663 145.09467511 143 137 C143.21527344 136.32066406 143.43054688 135.64132813 143.65234375 134.94140625 C146.73012288 124.13548099 147.47341443 111.36286457 142.59765625 101.02734375 C140.63873363 97.69861215 138.73505567 94.73505567 136 92 C132.15742053 92.08539065 130.3436073 92.7283105 127.3125 95.125 C124.70222908 98.37020168 123.52626183 101.14800585 122 105 C121.34 105.66 120.68 106.32 120 107 C116.70285207 106.67028521 115.3773161 106.3773161 113 104 C112.28748883 98.09633606 113.11274214 94.68715408 116.51953125 89.8203125 C120.91495505 84.41591279 125.52869511 82.04924655 132 80 C132.66 80 133.32 80 134 80 C133.21205287 73.88661709 132.04898606 70.51990357 127.37890625 66.46875 C125.16238792 64.10781263 124.85235895 61.06849222 124 58 C121.71709187 55.62342275 121.71709187 55.62342275 119 54 C118.401875 53.5875 117.80375 53.175 117.1875 52.75 C112.06422212 50.99344758 107.56768507 51.46741005 102.75 53.6875 C100.00956624 55.18034329 98.87021849 56.16413544 96.875 58.6875 C95 61 95 61 91.9375 62 C89 62 89 62 87.125 60.875 C85.54030873 58.23384788 85.4440755 57.05758474 86 54 C88.79956861 48.34901893 93.18486829 44.39211098 99 42 C102.3384208 41.35708016 105.60377581 41.07655423 109 41 C105.53262077 32.7290008 105.53262077 32.7290008 99 27 C92.26553388 24.52657338 85.77926687 23.64672304 78.62890625 23.50390625 C74.48946402 22.7104619 72.79708857 20.115924 70.4375 16.8125 C69.0382681 14.70898442 69.0382681 14.70898442 66 14 C64.01563983 13.90669153 62.03089209 13.8175576 60.04516602 13.76025391 C39.43552198 13.12427235 39.43552198 13.12427235 32.10546875 7.5625 C31 6 31 6 31.25 2.875 C32 0 32 0 33 -1 C37.34585154 -1.22872903 40.50641525 -1.12994479 44.75390625 -0.01171875 C48.99253981 1.10033694 53.01344408 1.27718936 57.375 1.375 C64.07068401 1.657752 70.21154369 2.30061063 76 6 C77.13501953 7.26263672 77.13501953 7.26263672 78.29296875 8.55078125 C81.5842886 11.52864207 84.3223631 11.9439659 88.5625 12.4375 C99.30713644 14.10773996 108.30608906 17.79361978 115.40625 26.36328125 C117.26015132 29.4303974 118.09262966 32.28869504 119 35.75 C120.08900481 40.20572353 120.08900481 40.20572353 122.8046875 43.73046875 C124.16757075 44.5250554 125.55793979 45.2745187 126.97265625 45.97265625 C133.06396517 49.0593889 135.50625496 53.86954345 138 60 C139.50083643 62.37830957 141.07840488 64.68370047 142.6953125 66.984375 C145.21473167 70.87665132 144.92953132 73.70878937 144.625 78.1875 C144.57073915 83.09268087 144.81406962 85.61998079 148.25 89.1875 C148.88679687 89.79464844 149.52359375 90.40179688 150.1796875 91.02734375 C158.4364478 99.97512047 157.56454717 113.98961416 157.17919922 125.25097656 C156.12130082 141.47977217 149.78635747 155.72609285 138 167 C133.33282367 170.88931361 128.86257925 172.0098755 123 173 C122.9175 173.825 122.835 174.65 122.75 175.5 C120.99729404 183.67929449 116.70975658 190.24573833 109.875 195.0625 C98.21958886 202.50049264 85.13469323 204.94116619 71.4921875 202.328125 C68.63882298 201.61309748 65.81517386 200.85216074 63 200 C63.144375 200.64066406 63.28875 201.28132812 63.4375 201.94140625 C65.60638874 212.0478253 65.60638874 212.0478253 65 217 C60.59097683 221.22534053 54.8560055 221.42142124 49.0625 222.375 C47.97775391 222.57738281 46.89300781 222.77976563 45.77539062 222.98828125 C44.20241211 223.25318359 44.20241211 223.25318359 42.59765625 223.5234375 C41.64383057 223.68763184 40.69000488 223.85182617 39.70727539 224.02099609 C36.17706797 223.99361781 34.69088702 223.27966753 32 221 C30.7331543 218.06762695 30.7331543 218.06762695 29.82421875 214.48828125 C29.47192599 213.16680715 29.11954642 211.8453562 28.76708984 210.52392578 C28.59119324 209.83526428 28.41529663 209.14660278 28.23406982 208.43707275 C25.12259268 196.34244316 21.82329125 184.60002072 15 174 C14.55906006 173.20924072 14.11812012 172.41848145 13.66381836 171.60375977 C11.26872166 167.82091913 9.59927793 165.35970292 5.09960938 164.34765625 C1.63131696 164.25643995 -1.72908982 164.41242075 -5.1875 164.6875 C-17.88410578 165.50183891 -28.66472428 163.92612054 -39 156 C-41.75 153.5 -41.75 153.5 -44 151 C-45.051875 149.8553125 -45.051875 149.8553125 -46.125 148.6875 C-49.37179822 144.03375588 -51 139.67976277 -51 134 C-51.57105469 133.97421875 -52.14210937 133.9484375 -52.73046875 133.921875 C-65.83726785 133.00502419 -78.76905489 128.88681003 -87.9375 119.125 C-91.9859797 114.12617295 -93.5534467 108.98060326 -95 102.8125 C-95.75073842 99.07822743 -95.75073842 99.07822743 -97.625 96.625 C-99.73136953 92.60374907 -99.55783134 88.45540612 -99 84 C-98.66492432 83.3822168 -98.32984863 82.76443359 -97.98461914 82.12792969 C-96.85828835 79.69373699 -96.81941694 78.21237151 -96.9453125 75.55078125 C-96.96980469 74.70193359 -96.99429688 73.85308594 -97.01953125 72.97851562 C-97.08908533 71.22034313 -97.16702348 69.46247953 -97.25390625 67.70507812 C-97.47021251 59.26277187 -94.59967811 52.37898762 -89.6171875 45.6015625 C-87.61093953 43.61469857 -85.49047194 42.51033227 -83 41.1875 C-77.94374664 38.40170605 -76.42869145 35.60053026 -74.19921875 30.40625 C-71.66951273 25.33035778 -67.75633101 22.67059911 -62.5625 20.6875 C-59 20 -59 20 -56.9921875 19.9140625 C-52.855562 19.76552512 -52.855562 19.76552512 -49.51171875 17.55859375 C-49.05410156 16.96175781 -48.59648438 16.36492188 -48.125 15.75 C-43.79938807 10.13247197 -38.40489379 7.54941755 -31.44140625 6.42578125 C-28.88640575 6.14073002 -26.33037651 5.86476043 -23.7734375 5.59765625 C-18.06411982 4.69338544 -13.19622738 2.43679291 -8 0 C-4.67679974 -1.10773342 -3.30835256 -0.93312508 0 0 Z " fill="#FFFFFF" transform="translate(99,18)"/>
<path d="M0 0 C3.125 0.25 3.125 0.25 5 1.25 C7.13846339 5.0517127 6.6083083 9.16774673 5.65625 13.26953125 C4.31798545 17.30822248 2.53428473 20.03929328 -0.25 23.25 C-1.87979008 25.17122753 -1.87979008 25.17122753 -2.875 27.25 C-2.54962066 29.48246378 -1.77049626 31.08392614 -0.765625 33.09765625 C0.81845706 36.92585457 0.85926226 41.19716025 0.125 45.25 C-1.69093262 47.59514728 -2.41440506 48.16939589 -5.375 48.6875 C-7.875 48.25 -7.875 48.25 -9.4765625 46.56640625 C-11.10474929 43.86943763 -11.39901426 41.86606851 -11.75 38.75 C-12.35136289 35.14182267 -12.64268558 33.5456729 -14.9375 30.625 C-18.8991819 28.7705957 -22.5538907 28.53232293 -26.875 28.25 C-31.575 27.55 -31.575 27.55 -33.875 25.25 C-33.625 21.6875 -33.625 21.6875 -32.875 18.25 C-30.09435129 16.85967565 -27.78970791 17.11786028 -24.6875 17.125 C-22.93566406 17.12693359 -22.93566406 17.12693359 -21.1484375 17.12890625 C-18.54464819 17.22522781 -16.33085495 17.48514788 -13.8125 18.0625 C-10.79966572 18.57420724 -10.79966572 18.57420724 -8.625 16.5625 C-6.44091023 12.42833008 -5.48194541 8.34885609 -4.48828125 3.796875 C-3.65043931 0.31742951 -3.65043931 0.31742951 0 0 Z " fill="#FFFFFF" transform="translate(77.875,106.75)"/>
<path d="M0 0 C1.67931317 1.64909417 3.06977836 3.38479856 4.47265625 5.2734375 C7.07894709 8.21967932 9.38612009 8.9291677 13.25 9.375 C16.74904514 9.02509549 18.11324193 8.56720475 21.0625 6.9375 C23.92115083 5.38328207 24.98883205 5.00020681 28.375 4.9375 C31 6 31 6 32.5 8.3125 C33.09616615 11.51689307 32.74219549 12.3132407 31 15 C26.47739405 18.35577361 21.65241217 20.56519906 16 21 C16.23897592 27.8227625 16.55359919 31.66431903 21 37 C20.68421053 43.31578947 20.68421053 43.31578947 19 45 C16.3125 45.5 16.3125 45.5 13 45 C9.08274312 41.72793837 6.53922289 37.85392148 5 33 C4.76953125 29.95703125 4.76953125 29.95703125 4.8125 26.8125 C4.82216797 25.24435547 4.82216797 25.24435547 4.83203125 23.64453125 C5 21 5 21 6 19 C4.9790625 18.690625 4.9790625 18.690625 3.9375 18.375 C-1.21562524 15.96289882 -5.89488243 12.42676038 -8 7 C-7.75 3.8125 -7.75 3.8125 -7 1 C-4.26760135 -0.36619933 -3.04371875 -0.55340341 0 0 Z " fill="#FFFFFF" transform="translate(201,129)"/>
<path d="M0 0 C1.4540625 0.0309375 1.4540625 0.0309375 2.9375 0.0625 C3.515 1.238125 4.0925 2.41375 4.6875 3.625 C5.43544822 5.10520522 6.18546689 6.58436596 6.9375 8.0625 C7.24945313 8.69414063 7.56140625 9.32578125 7.8828125 9.9765625 C10.72974694 15.40726937 14.00807575 18.79752135 19.6875 21.25 C24.07527647 22.34694412 28.49142873 23.23655 32.9375 24.0625 C33.4325 27.5275 33.4325 27.5275 33.9375 31.0625 C31.67025398 33.12218124 30.45713347 34.03345704 27.3515625 34.20703125 C22.32197693 33.60827106 17.67318805 32.98237353 12.9375 31.0625 C12.69515625 31.82046875 12.4528125 32.5784375 12.203125 33.359375 C10.09851832 37.85439915 6.21348967 39.78773109 1.9375 42.0625 C-1.4375 43.0625 -1.4375 43.0625 -4.0625 43.0625 C-7.0625 41.0625 -7.0625 41.0625 -7.875 39.1875 C-8.11525625 36.46459584 -7.50141534 35.37011037 -6.0625 33.0625 C-4.09629171 31.65338406 -2.06063368 30.5614845 0.0625 29.40625 C2.22673992 27.85521139 2.94550591 26.50115215 3.9375 24.0625 C3.03 23.134375 2.1225 22.20625 1.1875 21.25 C-2.57450658 16.85203517 -5.05062497 11.77959389 -6.0625 6.0625 C-4.24448646 0.08662217 -4.24448646 0.08662217 0 0 Z " fill="#FFFFFF" transform="translate(122.0625,81.9375)"/>
<path d="M0 0 C2.875 1.75 2.875 1.75 3.703125 3.6171875 C4.92619017 8.6666994 5.06304628 13.57872732 4.875 18.75 C7.90532442 20.26516221 10.52614962 19.92028053 13.875 19.75 C15.55245682 19.11096883 17.22061387 18.44658363 18.875 17.75 C21.7772368 17.40449562 23.23463887 17.36578332 25.75 18.875 C26.875 20.75 26.875 20.75 27.0625 23.6875 C25.71749127 27.15620672 25.17839522 27.4586689 22 29.0625 C14.95763163 32.141912 8.63256343 33.01130507 1.3125 30.25 C0.178125 29.755 -0.95625 29.26 -2.125 28.75 C-2.970625 29.53375 -3.81625 30.3175 -4.6875 31.125 C-7.95809422 33.83116543 -10.86818561 35.11936083 -15.125 35.75 C-17.5625 34.75 -17.5625 34.75 -19.125 32.75 C-19.52734375 29.8515625 -19.52734375 29.8515625 -19.125 26.75 C-17.0078125 24.7734375 -17.0078125 24.7734375 -14.25 23.125 C-9.56009733 20.37699294 -9.56009733 20.37699294 -7.125 15.75 C-7.06636463 12.39521932 -7.25523315 9.09529189 -7.4453125 5.74609375 C-7.125 2.75 -7.125 2.75 -5.3125 0.83203125 C-3.125 -0.25 -3.125 -0.25 0 0 Z " fill="#FFFFFF" transform="translate(43.125,67.25)"/>
<path d="M0 0 C5.73554621 0.34413277 9.18303652 1.76902725 13 6 C18.50067252 12.80205115 21.44348514 19.8058613 22.375 28.5 C21.57796938 35.93895244 19.30900002 42.86293937 15 49 C12.47217337 50.3429079 11.53727813 50.15350804 8.8125 49.375 C7 48 7 48 6.265625 45.75 C5.94653775 42.44650851 6.64507446 40.66241759 7.9375 37.625 C10.34777839 31.34315946 10.90294737 26.8721015 8.5 20.5 C6.42651281 16.09851817 3.59014779 13.55602695 -0.29296875 10.703125 C-2.46951029 8.5315641 -2.7863703 7.03451276 -3 4 C-1.5625 1.6875 -1.5625 1.6875 0 0 Z " fill="#FFFFFF" transform="translate(162,85)"/>
<path d="M0 0 C2 2 2 2 2.2734375 4.37890625 C1.79516049 8.96353306 -0.82510788 11.80010873 -4 15 C-12.56592398 21.24935335 -19.47773105 22.78818494 -30 22 C-33.12044631 21.24724156 -36.04682131 20.25286369 -39 19 C-39.625 16.1875 -39.625 16.1875 -40 13 C-39.34 12.01 -38.68 11.02 -38 10 C-36.03222656 9.72290039 -36.03222656 9.72290039 -33.640625 9.84765625 C-32.77179688 9.87537109 -31.90296875 9.90308594 -31.0078125 9.93164062 C-29.1846699 10.01814952 -27.36173729 10.10921699 -25.5390625 10.20507812 C-19.77623997 10.37932276 -16.54471916 9.94156198 -12 6 C-10.40265354 4.41309219 -10.40265354 4.41309219 -9.25 2.8125 C-6.04718844 -1.19101446 -4.80469047 -1.32128988 0 0 Z " fill="#FFFFFF" transform="translate(143,135)"/>
<path d="M0 0 C6.508072 1.92041469 11.98680207 5.49096227 15.3984375 11.4375 C18.30864289 18.00011082 18.30864289 18.00011082 17.15234375 21.74609375 C16 24 16 24 15 25 C11.75 25.1875 11.75 25.1875 8 24 C6.37407866 21.53517244 5.25669755 19.07889013 4.140625 16.34765625 C3.09934393 13.70079511 3.09934393 13.70079511 0 12 C-3.32540046 11.66146052 -6.62874502 11.55800552 -9.96875 11.44140625 C-13 11 -13 11 -14.9140625 9.65625 C-16 8 -16 8 -15.875 4.9375 C-13.7642383 -2.14862857 -6.03981868 -0.49480959 0 0 Z " fill="#FFFFFF" transform="translate(147,39)"/>
<path d="M0 0 C3.625 0.375 3.625 0.375 7 1 C7.625 3.8125 7.625 3.8125 8 7 C7.01 8.485 7.01 8.485 6 10 C2.81040219 10.4071827 0.83999753 10.51483719 -1.9375 8.8125 C-3 7 -3 7 -2.8125 4.4375 C-2 2 -2 2 0 0 Z " fill="#FFFFFF" transform="translate(165,164)"/>
<path d="M0 0 C2.33944736 0.28730055 4.6739143 0.61936779 7 1 C7.625 3.8125 7.625 3.8125 8 7 C7.01 8.485 7.01 8.485 6 10 C3.0625 10.4375 3.0625 10.4375 0 10 C-2 8.3125 -2 8.3125 -3 6 C-2.33228817 3.60736593 -1.77902615 1.77902615 0 0 Z " fill="#FFFFFF" transform="translate(113,15)"/>
</svg>
